<?xml version="1.0" encoding="UTF-8" standalone="no"?>
<!-- Created with Inkscape (http://www.inkscape.org/) -->

<svg
   xmlns:dc="http://purl.org/dc/elements/1.1/"
   xmlns:cc="http://creativecommons.org/ns#"
   xmlns:rdf="http://www.w3.org/1999/02/22-rdf-syntax-ns#"
   xmlns:svg="http://www.w3.org/2000/svg"
   xmlns="http://www.w3.org/2000/svg"
   xmlns:sodipodi="http://sodipodi.sourceforge.net/DTD/sodipodi-0.dtd"
   xmlns:inkscape="http://www.inkscape.org/namespaces/inkscape"
   width="181.14436mm"
   height="95.661247mm"
   viewBox="0 0 641.85009 338.95716"
   id="svg2"
   version="1.1"
   inkscape:version="0.91 r13725"
   sodipodi:docname="logo.svg"
   inkscape:export-filename="/home/samo/edi/sdp/pour_it/logo/logo.png"
   inkscape:export-xdpi="140.22"
   inkscape:export-ydpi="140.22">
  <defs
     id="defs4" />
  <sodipodi:namedview
     id="base"
     pagecolor="#ffff00"
     bordercolor="#666666"
     borderopacity="1.0"
     inkscape:pageopacity="0"
     inkscape:pageshadow="2"
     inkscape:zoom="0.67882252"
     inkscape:cx="417.33992"
     inkscape:cy="119.7918"
     inkscape:document-units="px"
     inkscape:current-layer="g4233"
     showgrid="false"
     inkscape:window-width="1366"
     inkscape:window-height="710"
     inkscape:window-x="0"
     inkscape:window-y="30"
     inkscape:window-maximized="1"
     fit-margin-top="0"
     fit-margin-left="0"
     fit-margin-right="0"
     fit-margin-bottom="0"
     borderlayer="true"
     showguides="false" />
  <metadata
     id="metadata7">
    <rdf:RDF>
      <cc:Work
         rdf:about="">
        <dc:format>image/svg+xml</dc:format>
        <dc:type
           rdf:resource="http://purl.org/dc/dcmitype/StillImage" />
        <dc:title></dc:title>
      </cc:Work>
    </rdf:RDF>
  </metadata>
  <g
     inkscape:label="Layer 1"
     inkscape:groupmode="layer"
     id="layer1"
     transform="translate(-858.60718,-928.54793)">
    <g
       id="g4203">
      <g
         id="g4278">
        <g
           transform="translate(0,460)"
           id="g4227"
           inkscape:export-xdpi="173.28"
           inkscape:export-ydpi="173.28">
          <g
             id="g4229"
             transform="matrix(0,-0.82094101,0.82094101,0,1244.9735,833.93609)"
             style="fill:#8787ff;fill-opacity:1;stroke:#8787ff;stroke-width:19.48983002;stroke-miterlimit:4;stroke-dasharray:none;stroke-opacity:1">
            <path
               sodipodi:nodetypes="ccscscccsssscc"
               inkscape:connector-curvature="0"
               id="path4231"
               d="m 187.99805,-151.58008 -32.71875,0.26172 c -7.24466,-0.009 -13.1277,3.48857 -17.78125,8.30859 -4.5955,4.75989 -8.0808,11.42708 -7.92969,19.22071 -0.15108,7.79358 3.33421,14.46083 7.92969,19.2207 4.65355,4.820023 10.53659,8.315414 17.78125,8.306641 L 187.99805,-96 c 6.43778,0.05063 10.90746,-6.39465 8.60351,-12.40625 -0.27817,-0.72566 -0.68579,-3.1033 -0.67773,-6.83398 6.7e-4,-0.31022 0.41754,-3.12693 1.00781,-5.78907 0.59027,-2.66214 1.46706,-4.45909 1.40234,-8.72265 -0.0649,-4.2744 -1.00188,-5.71079 -1.3496,-7.41407 -0.34773,-1.70327 -0.14518,-2.67662 -0.28711,-2.26953 2.08056,-5.96728 -2.37983,-12.1942 -8.69922,-12.14453 z"
               style="color:#000000;font-style:normal;font-variant:normal;font-weight:normal;font-stretch:normal;font-size:medium;line-height:normal;font-family:sans-serif;text-indent:0;text-align:start;text-decoration:none;text-decoration-line:none;text-decoration-style:solid;text-decoration-color:#000000;letter-spacing:normal;word-spacing:normal;text-transform:none;direction:ltr;block-progression:tb;writing-mode:lr-tb;baseline-shift:baseline;text-anchor:start;white-space:normal;clip-rule:nonzero;display:inline;overflow:visible;visibility:visible;opacity:1;isolation:auto;mix-blend-mode:normal;color-interpolation:sRGB;color-interpolation-filters:linearRGB;solid-color:#000000;solid-opacity:1;fill:#8787ff;fill-opacity:1;fill-rule:evenodd;stroke:none;stroke-width:18.27171516;stroke-linecap:round;stroke-linejoin:round;stroke-miterlimit:4;stroke-dasharray:none;stroke-dashoffset:0;stroke-opacity:1;color-rendering:auto;image-rendering:auto;shape-rendering:auto;text-rendering:auto;enable-background:accumulate" />
          </g>
          <g
             id="g4233"
             transform="translate(10,0)"
             style="stroke:#444444;stroke-opacity:1">
            <path
               sodipodi:nodetypes="ccsccccsssccsccsccssssscccc"
               inkscape:connector-curvature="0"
               id="path4237"
               d="m 893.72459,555.02779 c 0.0211,1.43437 0.69603,2.7806 1.83268,3.65576 0,0 1.58564,1.14131 4.20412,2.25438 2.61849,1.11308 6.62006,2.46967 12.53699,3.71829 l -0.16996,-0.0385 122.51908,30.66183 -0.091,-0.024 c 8.3254,2.26361 15.7457,-0.13453 22.0211,-3.28697 6.2753,-3.15244 11.8869,-6.98812 17.7849,-9.08166 6.037,-2.14287 13.891,-1.31128 21.7693,0.36237 7.8784,1.67364 15.3628,4.23331 22.3001,3.86579 5.0369,-0.26845 6.1728,-7.20251 1.4848,-9.06402 -5.1231,-2.03189 -11.9977,-3.0471 -19.2152,-4.98016 -7.2174,-1.93305 -14.4692,-4.67917 -19.2777,-8.85238 -3.4356,-2.98178 -5.46,-5.82142 -7.4413,-8.36493 -0.9907,-1.27176 -1.9529,-2.50796 -3.3768,-3.64934 -1.4239,-1.14139 -3.6042,-2.12018 -5.846,-2.04594 -0.3592,0.0116 -0.7158,0.0643 -1.063,0.15713 -12.5859,3.37552 -20.5194,2.85846 -27.322,1.5553 -6.8026,-1.30316 -12.7581,-3.7617 -20.493,-3.74554 -6.8858,0.0144 -11.9763,1.06605 -16.72992,2.02188 -4.75365,0.95583 -9.20347,1.83076 -15.81114,1.85353 -7.39802,0.0255 -11.20144,-0.83375 -15.7037,-1.81024 -4.50227,-0.97647 -9.67894,-2.06337 -18.13767,-2.06036 -15.56453,0.006 -24.64394,7.78543 -50.07259,2.23513 -2.95866,-0.6447 -5.74626,1.63493 -5.70169,4.66269 z"
               style="color:#000000;font-style:normal;font-variant:normal;font-weight:normal;font-stretch:normal;font-size:medium;line-height:normal;font-family:sans-serif;text-indent:0;text-align:start;text-decoration:none;text-decoration-line:none;text-decoration-style:solid;text-decoration-color:#000000;letter-spacing:normal;word-spacing:normal;text-transform:none;direction:ltr;block-progression:tb;writing-mode:lr-tb;baseline-shift:baseline;text-anchor:start;white-space:normal;clip-rule:nonzero;display:inline;overflow:visible;visibility:visible;opacity:1;isolation:auto;mix-blend-mode:normal;color-interpolation:sRGB;color-interpolation-filters:linearRGB;solid-color:#000000;solid-opacity:1;fill:#8787ff;fill-opacity:1;fill-rule:evenodd;stroke:none;stroke-width:11.45223427;stroke-linecap:round;stroke-linejoin:round;stroke-miterlimit:4;stroke-dasharray:none;stroke-dashoffset:0;stroke-opacity:1;color-rendering:auto;image-rendering:auto;shape-rendering:auto;text-rendering:auto;enable-background:accumulate" />
            <path
               inkscape:connector-curvature="0"
               id="path4239"
               d="m 915.83008,475.63477 c -10.71632,-0.0389 -21.7085,4.33817 -27.60742,14.82421 a 7.4637275,7.4637275 0 0 0 -0.0332,0.0605 c -6.69879,12.16638 -7.65701,24.92792 -10.79883,35.02344 a 7.4637275,7.4637275 0 0 0 -0.18554,0.71875 c -1.07242,5.23418 -3.38337,11.75024 -4.5957,19.0039 -1.21234,7.25367 -1.14802,15.82416 3.61718,23.62891 a 7.4637275,7.4637275 0 0 0 0.0293,0.0508 c 5.00934,8.06184 12.8526,12.2332 20.18359,14.68946 7.33099,2.45625 14.55339,3.5798 20.0586,5.23242 a 7.4637275,7.4637275 0 0 0 0.33789,0.0937 c 39.15317,9.77031 78.2599,20.29365 117.74415,29.67578 a 7.4637275,7.4637275 0 0 0 0.1543,0.0352 c 12.9342,2.78739 26.3124,-0.62381 36.5429,-8.59766 l 0.01,-0.006 c 8.0132,-6.22713 19.248,-7.67234 30.041,-5.66406 a 7.4637275,7.4637275 0 0 0 14.7148,1.83203 c 0.3901,-1.54689 0.7379,-2.59111 1.0606,-4.00977 0.1613,-0.70933 0.3572,-1.53655 0.3339,-2.875 -0.023,-1.33844 -0.4794,-3.43851 -1.7187,-5.07812 -2.4787,-3.27924 -4.912,-3.30609 -6.3106,-3.59766 -1.3949,-0.29082 -2.6818,-0.47257 -4.498,-0.83203 -14.1499,-2.82413 -30.238,-1.31647 -42.793,8.44727 a 7.4637275,7.4637275 0 0 0 -0.01,0.006 c -6.8569,5.34677 -15.8473,7.58177 -24.2109,5.78515 -39.15266,-9.30614 -78.16047,-19.80034 -117.44532,-29.60351 l 0.33789,0.0937 c -6.9382,-2.0828 -13.92953,-3.18747 -19.60742,-5.08985 -5.66582,-1.89833 -9.62047,-4.2125 -12.22852,-8.39258 -2.33149,-3.83578 -2.53315,-7.90623 -1.62109,-13.36328 0.91415,-5.46956 3.11986,-11.75174 4.49609,-18.46875 l -0.18554,0.71875 c 3.79833,-12.2051 4.93105,-23.71188 9.60742,-32.22656 3.63369,-6.41461 13.03047,-8.53135 20.96289,-6.29883 a 7.4637275,7.4637275 0 0 0 0.19141,0.0508 c 17.89051,4.52266 35.78006,9.10313 53.68945,13.65235 27.63574,7.29079 55.32804,13.58383 82.36324,21.32812 8.1951,2.47135 14.7846,9.19285 18.3848,17.54883 a 7.4637275,7.4637275 0 0 0 0.066,0.14844 c 6.9419,15.19297 21.6458,23.36269 35.5,27.45508 a 7.4637275,7.4637275 0 0 0 0.7012,0.16992 c 1.3571,0.26199 2.3265,0.50865 3.5293,0.73047 1.2027,0.22181 3.1008,0.8347 6.1269,-0.49414 3.0261,-1.32885 4.4407,-4.20189 4.9336,-5.59961 0.493,-1.39773 0.6823,-2.3723 1.0215,-3.6836 a 7.4637275,7.4637275 0 0 0 -13.4941,-5.96289 c -10.8037,-3.46275 -20.5297,-9.59887 -24.7422,-18.81836 l 0.066,0.14844 c -5.0685,-11.76385 -14.661,-21.986 -27.8067,-25.94141 a 7.4637275,7.4637275 0 0 0 -0.096,-0.0273 c -27.6172,-7.9143 -55.4626,-14.23417 -82.81245,-21.45117 a 7.4637275,7.4637275 0 0 0 -0.0684,-0.0176 C 961.87534,486.14291 943.9812,481.5613 926.06127,477.0312 l 0.19336,0.0508 c -3.31183,-0.93209 -6.85368,-1.43429 -10.42578,-1.44726 z m 203.23042,82.14648 c 0.4236,0.003 0.512,0.118 0.2852,0.0762 -0.043,-0.008 -0.2654,-0.0549 -0.3223,-0.0664 0.01,-1e-5 0.03,-0.01 0.037,-0.01 z m -13.0937,47.43555 c 0.072,0.0137 0.3364,0.0605 0.3926,0.0723 0.3221,0.0672 0.1193,0.15967 -0.3926,-0.0723 z"
               style="color:#000000;font-style:normal;font-variant:normal;font-weight:normal;font-stretch:normal;font-size:medium;line-height:normal;font-family:sans-serif;text-indent:0;text-align:start;text-decoration:none;text-decoration-line:none;text-decoration-style:solid;text-decoration-color:#000000;letter-spacing:normal;word-spacing:normal;text-transform:none;direction:ltr;block-progression:tb;writing-mode:lr-tb;baseline-shift:baseline;text-anchor:start;white-space:normal;clip-rule:nonzero;display:inline;overflow:visible;visibility:visible;opacity:1;isolation:auto;mix-blend-mode:normal;color-interpolation:sRGB;color-interpolation-filters:linearRGB;solid-color:#000000;solid-opacity:1;fill:#444444;fill-opacity:1;fill-rule:evenodd;stroke:none;stroke-width:14.92596245;stroke-linecap:round;stroke-linejoin:round;stroke-miterlimit:4;stroke-dasharray:none;stroke-dashoffset:0;stroke-opacity:1;color-rendering:auto;image-rendering:auto;shape-rendering:auto;text-rendering:auto;enable-background:accumulate" />
            <path
               inkscape:connector-curvature="0"
               id="path4241"
               d="m 1112.9492,576.14648 a 5.3005302,5.3005302 0 0 0 -1.164,10.49805 c 4.6836,1.00071 7.2818,2.54165 9.1836,4.72656 1.9017,2.18492 3.2743,5.39976 4.1757,10.27344 1.8028,9.74737 1.3572,25.39638 2.0664,46.85547 a 5.3005302,5.3005302 0 1 0 10.5938,-0.34961 c -0.6975,-21.10561 -0.039,-36.55575 -2.2363,-48.43359 -1.0985,-5.93892 -3.0013,-11.16807 -6.6036,-15.30664 -3.6022,-4.13858 -8.7361,-6.80002 -14.9648,-8.13086 a 5.3005302,5.3005302 0 0 0 -1.0508,-0.13282 z"
               style="color:#000000;font-style:normal;font-variant:normal;font-weight:normal;font-stretch:normal;font-size:medium;line-height:normal;font-family:sans-serif;text-indent:0;text-align:start;text-decoration:none;text-decoration-line:none;text-decoration-style:solid;text-decoration-color:#000000;letter-spacing:normal;word-spacing:normal;text-transform:none;direction:ltr;block-progression:tb;writing-mode:lr-tb;baseline-shift:baseline;text-anchor:start;white-space:normal;clip-rule:nonzero;display:inline;overflow:visible;visibility:visible;opacity:1;isolation:auto;mix-blend-mode:normal;color-interpolation:sRGB;color-interpolation-filters:linearRGB;solid-color:#000000;solid-opacity:1;fill:#8787ff;fill-opacity:1;fill-rule:evenodd;stroke:none;stroke-width:10.60000038;stroke-linecap:round;stroke-linejoin:round;stroke-miterlimit:4;stroke-dasharray:none;stroke-dashoffset:0;stroke-opacity:1;color-rendering:auto;image-rendering:auto;shape-rendering:auto;text-rendering:auto;enable-background:accumulate" />
          </g>
        </g>
        <g
           id="text4243"
           style="font-style:normal;font-weight:normal;font-size:40px;line-height:0%;font-family:sans-serif;letter-spacing:0px;word-spacing:0px;fill:#444444;fill-opacity:1;stroke:none;stroke-width:1px;stroke-linecap:butt;stroke-linejoin:miter;stroke-opacity:1"
           inkscape:export-xdpi="173.28"
           inkscape:export-ydpi="173.28">
          <path
             id="path4254"
             style="font-style:normal;font-variant:normal;font-weight:normal;font-stretch:normal;font-size:250px;font-family:Dosis;-inkscape-font-specification:Dosis;stroke:none;stroke-opacity:1"
             d="m 866.60718,1091.2551 q 3.25,0 5.5,1.75 2.25,1.5 2.25,4.25 l 0,11.5 q 4.25,-7.25 12.5,-13 8.5,-6 21,-6 9.25,0 17.5,3.75 8.25,3.5 14.25,10 6.25,6.25 9.75,14.75 3.5,8.5 3.5,18.25 l 0,27.25 q 0,9.25 -3.75,18 -3.5,8.5 -9.75,15 -6,6.5 -14,10.5 -8,4 -16.75,4 -11.5,0 -20.5,-5.75 -9,-5.75 -13.25,-13.5 l 0,69.25 q 0,2.25 -2.5,4.25 -2.25,2 -5.75,2 -3.5,0 -5.75,-2 -2.25,-2 -2.25,-4.25 l 0,-164 q 0,-2.75 2.25,-4.25 2.25,-1.75 5.75,-1.75 z m 70,45.25 q 0,-6 -2.5,-11.75 -2.5,-5.75 -6.75,-10 -4.25,-4.5 -10,-7.25 -5.75,-2.75 -12.25,-2.75 -5.75,0 -11.25,2.25 -5.25,2 -9.5,6.25 -4.25,4 -7,10 -2.5,5.75 -2.5,13.25 l 0,35 q 0,2.75 2.25,7 2.25,4.25 6.25,8.25 4.25,4 9.75,6.75 5.75,2.75 12.5,2.75 6.25,0 11.75,-2.75 5.75,-2.75 10,-7.25 4.25,-4.5 6.75,-10.25 2.5,-6 2.5,-12.25 l 0,-27.25 z"
             inkscape:connector-curvature="0" />
          <path
             id="path4256"
             style="font-style:normal;font-variant:normal;font-weight:normal;font-stretch:normal;font-size:250px;font-family:Dosis;-inkscape-font-specification:Dosis;stroke:none;stroke-opacity:1"
             d="m 1022.2009,1089.7551 q 9.5,0 18,3.75 8.75,3.5 15.25,10 6.75,6.25 10.5,14.75 4,8.5 4,18.25 l 0,27.25 q 0,9.25 -4,18 -3.75,8.5 -10.5,15 -6.5,6.5 -15.25,10.5 -8.5,4 -18,4 -9.5,0 -18,-3.75 -8.49997,-4 -14.99997,-10.5 -6.5,-6.75 -10.5,-15.25 -3.75,-8.5 -3.75,-18 l 0,-27.25 q 0,-9.25 3.75,-17.75 3.75,-8.5 10,-15 6.5,-6.5 14.99997,-10.25 8.75,-3.75 18.5,-3.75 z m 31.5,46.75 q 0,-6 -2.5,-11.75 -2.5,-5.75 -6.75,-10 -4.25,-4.5 -10,-7.25 -5.75,-2.75 -12.25,-2.75 -6.5,0 -12.25,2.75 -5.75,2.75 -9.99997,7.25 -4,4.25 -6.5,10 -2.25,5.75 -2.25,11.75 l 0,27.25 q 0,6.25 2.25,12.25 2.5,5.75 6.74997,10.25 4.25,4.5 9.75,7.25 5.75,2.75 12.25,2.75 6.5,0 12.25,-2.75 5.75,-2.75 10,-7.25 4.25,-4.5 6.75,-10.25 2.5,-6 2.5,-12.25 l 0,-27.25 z"
             inkscape:connector-curvature="0" />
          <path
             id="path4258"
             style="font-style:normal;font-variant:normal;font-weight:normal;font-stretch:normal;font-size:250px;font-family:Dosis;-inkscape-font-specification:Dosis;stroke:none;stroke-opacity:1"
             d="m 1143.1384,1211.2551 q -9.75,0 -18.5,-3.75 -8.75,-4 -15.25,-10.5 -6.25,-6.5 -10,-15 -3.75,-8.5 -3.75,-17.75 l 0,-66.75 q 0,-2.25 2.25,-4.25 2.5,-2 6,-2 3.25,0 5.5,2 2.5,2 2.5,4.25 l 0,66.75 q 0,6 2.25,11.75 2.5,5.75 6.75,10.25 4.25,4.5 10,7.25 5.75,2.75 12.25,2.75 6.5,0 12,-2.5 5.75,-2.75 10,-7.25 4.25,-4.5 6.75,-10.25 2.5,-5.75 2.5,-12 l 0,-67 q 0,-2.5 2.25,-4.25 2.5,-1.75 6,-1.75 3.5,0 5.75,1.75 2.25,1.75 2.25,4.25 l 0,67 q 0,9.5 -3.75,18 -3.75,8.5 -10.25,15 -6.5,6.25 -15.25,10.25 -8.5,3.75 -18.25,3.75 z"
             inkscape:connector-curvature="0" />
          <path
             id="path4260"
             style="letter-spacing:-5px;stroke:none;stroke-opacity:1"
             d="m 1270.1619,1104.7551 q -6.25,0 -12.25,2.5 -5.75,2.5 -10.5,7.25 -4.5,4.75 -7.5,11.5 -2.75,6.75 -2.75,15.25 l 0,61.75 q 0,2.5 -2.5,4.5 -2.25,2 -5.75,2 -3.5,0 -5.75,-2 -2.25,-2 -2.25,-4.5 l 0,-105.75 q 0,-2.75 2.25,-4.25 2.25,-1.75 5.75,-1.75 3.25,0 5.5,1.75 2.25,1.5 2.25,4.25 l 0,12.25 q 4.25,-7.5 12.75,-13.5 8.5,-6.25 20.75,-6.25 l 8.75,0 q 2.75,0 4.5,2.25 2,2.25 2,5.25 0,3 -2,5.25 -1.75,2.25 -4.5,2.25 l -8.75,0 z"
             inkscape:connector-curvature="0" />
          <path
             id="path4264"
             style="letter-spacing:1.43999887px;stroke:none;stroke-opacity:1"
             d="m 1405.4158,1091.2551 q 3.5,0 5.75,1.75 2.5,1.5 2.5,4.25 l 0,105.75 q 0,2.5 -2.5,4.5 -2.25,2 -5.75,2 -3.5,0 -5.75,-2 -2.25,-2 -2.25,-4.5 l 0,-105.75 q 0,-2.75 2.25,-4.25 2.25,-1.75 5.75,-1.75 z m 0,-55.75 q 4.5,0 7.5,3 3.25,3 3.25,7.25 0,4.25 -3.25,7.5 -3,3 -7.5,3 -4.75,0 -8,-3 -3.25,-3.25 -3.25,-7.5 0,-4.25 3.25,-7.25 3.25,-3 8,-3 z"
             inkscape:connector-curvature="0" />
          <path
             id="path4266"
             style="font-style:normal;font-variant:normal;font-weight:normal;font-stretch:normal;font-size:250px;font-family:Dosis;-inkscape-font-specification:Dosis;stroke:none;stroke-opacity:1"
             d="m 1462.4573,1172.7551 q 0,12.25 5,17.25 5.25,4.75 18.25,4.75 l 7,0 q 3.5,0 5.5,2.25 2,2.25 2,5 0,3 -2,5.25 -2,2.25 -5.5,2.25 l -7,0 q -19.5,0 -29.5,-8.5 -10,-8.75 -10,-28.25 l 0,-131.75 q 0,-2.75 2.5,-4.25 2.75,-1.75 5.5,-1.75 3,0 5.5,1.75 2.75,1.5 2.75,4.25 l 0,50.25 32.25,0 q 2.5,0 4,2 1.75,2 1.75,4.75 0,2.75 -1.75,4.75 -1.5,2 -4,2 l -32.25,0 0,68 z"
             inkscape:connector-curvature="0" />
          <path
             id="path4262"
             style="letter-spacing:15px;stroke:none;stroke-opacity:1"
             d="m 1274.4314,1202.5052 q 0,-3.25 1.75,-5.5 1.75,-2 4.5,-2 l 80,0 q 2.5,0 4.25,2 2,2.25 2,5.5 0,3.25 -2,5 -1.75,2 -4.25,2 l -80,0 q -6.25,0 -6.25,-7 z"
             inkscape:connector-curvature="0" />
        </g>
      </g>
    </g>
  </g>
</svg>
