<?xml version="1.0" encoding="UTF-8" standalone="no"?>
<!-- Created with Inkscape (http://www.inkscape.org/) -->

<svg
   xmlns:dc="http://purl.org/dc/elements/1.1/"
   xmlns:cc="http://creativecommons.org/ns#"
   xmlns:rdf="http://www.w3.org/1999/02/22-rdf-syntax-ns#"
   xmlns:svg="http://www.w3.org/2000/svg"
   xmlns="http://www.w3.org/2000/svg"
   xmlns:sodipodi="http://sodipodi.sourceforge.net/DTD/sodipodi-0.dtd"
   xmlns:inkscape="http://www.inkscape.org/namespaces/inkscape"
   width="181.14438mm"
   height="93.661446mm"
   viewBox="0 0 641.85016 331.87125"
   id="svg2"
   version="1.1"
   inkscape:version="0.91 r13725"
   sodipodi:docname="pourit_logo.svg"
   inkscape:export-filename="/home/samo/edi/sdp/pourit_logo.png"
   inkscape:export-xdpi="140.22"
   inkscape:export-ydpi="140.22">
  <defs
     id="defs4" />
  <sodipodi:namedview
     id="base"
     pagecolor="#ffffff"
     bordercolor="#666666"
     borderopacity="1.0"
     inkscape:pageopacity="0.0"
     inkscape:pageshadow="2"
     inkscape:zoom="0.175"
     inkscape:cx="-770.25996"
     inkscape:cy="321.7165"
     inkscape:document-units="px"
     inkscape:current-layer="g4204"
     showgrid="false"
     inkscape:window-width="1366"
     inkscape:window-height="710"
     inkscape:window-x="0"
     inkscape:window-y="30"
     inkscape:window-maximized="1"
     fit-margin-top="0"
     fit-margin-left="0"
     fit-margin-right="0"
     fit-margin-bottom="0" />
  <metadata
     id="metadata7">
    <rdf:RDF>
      <cc:Work
         rdf:about="">
        <dc:format>image/svg+xml</dc:format>
        <dc:type
           rdf:resource="http://purl.org/dc/dcmitype/StillImage" />
        <dc:title></dc:title>
      </cc:Work>
    </rdf:RDF>
  </metadata>
  <g
     inkscape:label="Layer 1"
     inkscape:groupmode="layer"
     id="layer1"
     transform="translate(-858.60718,-475.63383)">
    <rect
       inkscape:export-ydpi="25.25"
       inkscape:export-xdpi="25.25"
       y="-161.46802"
       x="823.39996"
       height="401.88083"
       width="712.28491"
       id="rect4166"
       style="opacity:1;fill:#ffffff;fill-opacity:1;stroke:#000000;stroke-width:0.72193897;stroke-linecap:round;stroke-linejoin:round;stroke-miterlimit:4;stroke-dasharray:none;stroke-opacity:1" />
    <text
       xml:space="preserve"
       style="font-style:normal;font-weight:normal;font-size:40px;line-height:0%;font-family:sans-serif;letter-spacing:0px;word-spacing:0px;fill:#444444;fill-opacity:1;stroke:none;stroke-width:1px;stroke-linecap:butt;stroke-linejoin:miter;stroke-opacity:1"
       x="842.85718"
       y="749.50507"
       id="text4156"
       sodipodi:linespacing="0%"><tspan
         sodipodi:role="line"
         id="tspan4158"
         x="842.85718"
         y="749.50507"
         style="font-style:normal;font-variant:normal;font-weight:normal;font-stretch:normal;font-size:250px;font-family:Dosis;-inkscape-font-specification:Dosis;stroke:none;stroke-opacity:1">pou<tspan
   style="letter-spacing:-5px;stroke:none;stroke-opacity:1"
   id="tspan4503">r</tspan><tspan
   style="letter-spacing:15px;stroke:none;stroke-opacity:1"
   id="tspan4501">_</tspan><tspan
   style="letter-spacing:1.43999887px;stroke:none;stroke-opacity:1"
   id="tspan4209">i</tspan>t</tspan></text>
    <g
       id="g4152">
      <g
         style="fill:#8787ff;fill-opacity:1;stroke:#8787ff;stroke-width:19.48983002;stroke-miterlimit:4;stroke-dasharray:none;stroke-opacity:1"
         transform="matrix(0,-0.82094101,0.82094101,0,1244.9735,833.93609)"
         id="g4160">
        <path
           sodipodi:nodetypes="cczzcccc"
           inkscape:connector-curvature="0"
           id="path4192"
           d="m 155.26909,-142.18249 32.80208,-0.26108 c -1.56435,4.48683 1.08863,10.18154 1.12884,12.82979 0.0402,2.64825 -2.40245,10.18695 -2.41149,14.3538 -0.009,4.16686 0.28218,7.51379 1.28265,10.12372 l -32.80208,-0.26108 c -7.43267,0.009 -16.8996,-8.59119 -16.59361,-18.39258 -0.30599,-9.80138 9.16094,-18.40157 16.59361,-18.39257 z"
           style="fill:#8787ff;fill-opacity:1;fill-rule:evenodd;stroke:#8787ff;stroke-width:18.27171516;stroke-linecap:round;stroke-linejoin:round;stroke-miterlimit:4;stroke-dasharray:none;stroke-opacity:1" />
      </g>
      <g
         style="stroke:#444444;stroke-opacity:1"
         transform="translate(10,0)"
         id="g4204">
        <path
           transform="matrix(0,-0.82094101,0.82094101,0,1244.9735,833.93609)"
           sodipodi:nodetypes="cssscccscsc"
           inkscape:connector-curvature="0"
           id="path4182"
           d="m 339.9513,-219.33222 c -8.62986,-32.17705 2.50623,-43.49838 2.47235,-59.71551 -0.0327,-15.64984 -4.66091,-22.50832 -4.71993,-39.63257 -0.0654,-18.98756 4.72221,-21.5619 4.71523,-41.24037 -0.006,-16.76361 -9.65313,-29.86606 -2.59183,-62.21736 0,0 -3.30031,4.29071 -6.21122,18.08486 l -37.34989,149.24234 c -4.57067,16.8108 9.17534,28.83786 14.93772,45.07189 6.49285,18.29195 -5.51846,42.26869 -4.82846,55.29309 3.98043,-10.03595 5.68913,-34.52133 17.84693,-48.52973 8.18181,-9.42719 15.89549,-11.33195 15.7291,-16.35664 z"
           style="fill:#8787ff;fill-opacity:1;fill-rule:evenodd;stroke:#8787ff;stroke-width:11.45223427;stroke-linecap:round;stroke-linejoin:round;stroke-miterlimit:4;stroke-dasharray:none;stroke-opacity:1" />
        <path
           transform="matrix(0,-0.82094101,0.82094101,0,1244.9735,833.93609)"
           style="fill:none;fill-rule:evenodd;stroke:#444444;stroke-width:18.18152809;stroke-linecap:round;stroke-linejoin:round;stroke-miterlimit:4;stroke-dasharray:none;stroke-opacity:1"
           d="m 332.60332,-150.41021 c -6.76503,-1.74999 -5.81096,-1.04087 -4.37231,-8.49312 4.5398,-15.36891 13.38455,-30.64279 28.50317,-37.55075 12.25709,-5.281 22.5804,-15.14047 26.49251,-28.14225 9.54712,-33.31498 17.23292,-67.17258 26.0779,-100.69192 5.53861,-21.80448 11.11888,-43.59871 16.63253,-65.40931 3.6326,-12.90709 0.43539,-28.94669 -12.001,-35.94278 -12.59769,-6.93627 -27.38744,-8.20736 -40.97824,-12.43693 -14.55792,-2.98275 -31.18119,-11.00352 -45.3701,-2.34046 -14.93265,9.2786 -15.80987,28.75316 -20.36003,43.91066 -11.92823,47.80069 -24.7369,95.40415 -36.12397,143.32613 -2.79652,12.97649 0.64393,26.60843 8.76184,37.01921 9.81956,12.62664 11.60894,29.451 8.55223,44.7663 -1.91784,9.68016 -0.37165,8.65957 -8.83021,6.52637"
           id="path4176"
           inkscape:connector-curvature="0"
           sodipodi:nodetypes="cccccccccccccc" />
        <path
           style="fill:none;fill-rule:evenodd;stroke:#8787ff;stroke-width:10.60000038;stroke-linecap:round;stroke-linejoin:round;stroke-miterlimit:4;stroke-dasharray:none;stroke-opacity:1"
           d="m 1112.8923,581.46153 c 21.8246,4.66311 18.2083,24.29963 19.615,66.86433"
           id="path4184"
           inkscape:connector-curvature="0"
           sodipodi:nodetypes="cc" />
        <rect
           style="opacity:1;fill:#ffffff;fill-opacity:1;stroke:#000000;stroke-width:1;stroke-linecap:round;stroke-linejoin:round;stroke-miterlimit:4;stroke-dasharray:none;stroke-opacity:1"
           id="rect4153"
           width="790.18982"
           height="790.18982"
           x="-176.35913"
           y="249.42438"
           inkscape:export-xdpi="22.750546"
           inkscape:export-ydpi="22.750546" />
        <path
           style="fill:#8787ff;fill-opacity:1;fill-rule:evenodd;stroke:#8787ff;stroke-width:9.40160847;stroke-linecap:round;stroke-linejoin:round;stroke-miterlimit:4;stroke-dasharray:none;stroke-opacity:1"
           d="m 120.9147,554.85613 c -26.4155,7.0846 -35.7096,-2.05747 -49.0229,-2.02966 -12.8476,0.0269 -18.47803,3.82634 -32.53603,3.87479 -15.58766,0.0537 -17.70105,-3.87666 -33.85591,-3.87093 -13.76193,0.005 -24.51827,7.92465 -51.07678,2.12774 0,0 3.52242,2.70936 14.8466,5.09905 L 91.7888,590.71917 c 13.8007,3.75225 23.6742,-7.53241 37.0014,-12.26298 15.0166,-5.33025 34.7001,4.53033 45.3924,3.96388 -8.239,-3.2677 -28.34,-4.67044 -39.8401,-14.65128 -7.7391,-6.71678 -9.3028,-13.04926 -13.4278,-12.91266 z"
           id="path4169"
           inkscape:connector-curvature="0"
           sodipodi:nodetypes="cssscccscsc" />
        <path
           sodipodi:nodetypes="cccccccccccccc"
           inkscape:connector-curvature="0"
           id="path4171"
           d="m 177.4956,560.88838 c -1.4366,5.5537 -0.8545,4.77046 -6.9724,3.58941 -12.6169,-3.7269 -25.1559,-10.98792 -30.8269,-23.39942 -4.3354,-10.06235 -12.4294,-18.53717 -23.1031,-21.74879 -27.3497,-7.83762 -55.1448,-14.14721 -82.66216,-21.40841 -17.9002,-4.54688 -35.79197,-9.12795 -53.69719,-13.65433 -10.59596,-2.98215 -23.76352,-0.35743 -29.5069,9.85211 -5.69427,10.34196 -6.73776,22.48348 -10.20999,33.64072 -2.44866,11.95119 -9.03324,25.59792 -1.92138,37.24618 7.61719,12.25882 23.60465,12.97897 36.04806,16.71438 39.24155,9.79237 78.32118,20.30754 117.66226,29.65565 10.653,2.29578 21.844,-0.52863 30.3906,-7.19295 10.3658,-8.06128 24.1776,-9.53026 36.7505,-7.02088 7.9469,1.57443 7.109,0.3051 5.3578,7.24908"
           style="fill:none;fill-rule:evenodd;stroke:#444444;stroke-width:14.92596245;stroke-linecap:round;stroke-linejoin:round;stroke-miterlimit:4;stroke-dasharray:none;stroke-opacity:1" />
        <path
           sodipodi:nodetypes="cc"
           inkscape:connector-curvature="0"
           id="path4173"
           d="m 168.8923,581.46153 c 21.8246,4.66311 18.2083,24.29963 19.615,66.86433"
           style="fill:none;fill-rule:evenodd;stroke:#8787ff;stroke-width:10.60000038;stroke-linecap:round;stroke-linejoin:round;stroke-miterlimit:4;stroke-dasharray:none;stroke-opacity:1" />
        <path
           style="fill:#8787ff;fill-opacity:1;fill-rule:evenodd;stroke:#8787ff;stroke-width:9.40160847;stroke-linecap:round;stroke-linejoin:round;stroke-miterlimit:4;stroke-dasharray:none;stroke-opacity:1"
           d="m 1064.9147,-47.14387 c -26.4155,7.0846 -35.7096,-2.05747 -49.0229,-2.02966 -12.8476,0.0269 -18.47803,3.82634 -32.53603,3.87479 -15.58766,0.0537 -17.70105,-3.87666 -33.85591,-3.87093 -13.76193,0.005 -24.51827,7.92465 -51.07678,2.12774 0,0 3.52242,2.70936 14.8466,5.09905 l 122.51912,30.66205 c 13.8007,3.75225 23.6742,-7.53241 37.0014,-12.26298 15.0166,-5.33025 34.7001,4.53033 45.3924,3.96388 -8.239,-3.2677 -28.34,-4.67044 -39.8401,-14.65128 -7.7391,-6.71678 -9.3028,-13.04926 -13.4278,-12.91266 z"
           id="path4178"
           inkscape:connector-curvature="0"
           sodipodi:nodetypes="cssscccscsc" />
        <path
           sodipodi:nodetypes="cccccccccccccc"
           inkscape:connector-curvature="0"
           id="path4180"
           d="m 1121.4956,-41.11162 c -1.4366,5.5537 -0.8545,4.77046 -6.9724,3.58941 -12.6169,-3.7269 -25.1559,-10.98792 -30.8269,-23.39942 -4.3354,-10.06235 -12.4294,-18.53717 -23.1031,-21.74879 -27.3497,-7.83762 -55.1448,-14.14721 -82.66216,-21.40841 -17.9002,-4.54688 -35.79197,-9.12795 -53.69719,-13.65433 -10.59596,-2.98215 -23.76352,-0.35743 -29.5069,9.85211 -5.69427,10.34196 -6.73776,22.48348 -10.20999,33.64072 -2.44866,11.95119 -9.03324,25.59792 -1.92138,37.24618 7.61719,12.25882 23.60465,12.97897 36.04806,16.71438 39.24155,9.79237 78.32118,20.30754 117.66226,29.65565 10.653,2.29578 21.844,-0.52863 30.3906,-7.19295 10.3658,-8.06128 24.1776,-9.53026 36.7505,-7.02088 7.9469,1.57443 7.109,0.3051 5.3578,7.24908"
           style="fill:none;fill-rule:evenodd;stroke:#444444;stroke-width:14.92596245;stroke-linecap:round;stroke-linejoin:round;stroke-miterlimit:4;stroke-dasharray:none;stroke-opacity:1" />
        <path
           sodipodi:nodetypes="cc"
           inkscape:connector-curvature="0"
           id="path4183"
           d="m 1112.8923,-20.53847 c 21.8246,4.66311 18.2083,24.29963 19.615,66.86433"
           style="fill:none;fill-rule:evenodd;stroke:#8787ff;stroke-width:10.60000038;stroke-linecap:round;stroke-linejoin:round;stroke-miterlimit:4;stroke-dasharray:none;stroke-opacity:1" />
      </g>
      <g
         id="g4165"
         transform="matrix(0,-0.82094101,0.82094101,0,300.9735,833.93609)"
         style="fill:#8787ff;fill-opacity:1;stroke:#8787ff;stroke-width:19.48983002;stroke-miterlimit:4;stroke-dasharray:none;stroke-opacity:1">
        <path
           style="fill:#8787ff;fill-opacity:1;fill-rule:evenodd;stroke:#8787ff;stroke-width:18.27171516;stroke-linecap:round;stroke-linejoin:round;stroke-miterlimit:4;stroke-dasharray:none;stroke-opacity:1"
           d="m 155.26909,-142.18249 32.80208,-0.26108 c -1.56435,4.48683 1.08863,10.18154 1.12884,12.82979 0.0402,2.64825 -2.40245,10.18695 -2.41149,14.3538 -0.009,4.16686 0.28218,7.51379 1.28265,10.12372 l -32.80208,-0.26108 c -7.43267,0.009 -16.8996,-8.59119 -16.59361,-18.39258 -0.30599,-9.80138 9.16094,-18.40157 16.59361,-18.39257 z"
           id="path4167"
           inkscape:connector-curvature="0"
           sodipodi:nodetypes="cczzcccc" />
      </g>
    </g>
    <text
       sodipodi:linespacing="0%"
       id="text4155"
       y="749.50507"
       x="-101.14282"
       style="font-style:normal;font-weight:normal;font-size:40px;line-height:0%;font-family:sans-serif;letter-spacing:0px;word-spacing:0px;fill:#444444;fill-opacity:1;stroke:none;stroke-width:1px;stroke-linecap:butt;stroke-linejoin:miter;stroke-opacity:1"
       xml:space="preserve"><tspan
         style="font-style:normal;font-variant:normal;font-weight:normal;font-stretch:normal;font-size:250px;font-family:Dosis;-inkscape-font-specification:Dosis;stroke:none;stroke-opacity:1"
         y="749.50507"
         x="-101.14282"
         id="tspan4157"
         sodipodi:role="line">pou<tspan
   id="tspan4159"
   style="letter-spacing:-5px;stroke:none;stroke-opacity:1">r</tspan><tspan
   id="tspan4161"
   style="letter-spacing:15px;stroke:none;stroke-opacity:1">_</tspan><tspan
   id="tspan4163"
   style="letter-spacing:1.43999887px;stroke:none;stroke-opacity:1">i</tspan>t</tspan></text>
    <text
       sodipodi:linespacing="0%"
       id="text4168"
       y="147.50507"
       x="842.85718"
       style="font-style:normal;font-weight:normal;font-size:40px;line-height:0%;font-family:sans-serif;letter-spacing:0px;word-spacing:0px;fill:#444444;fill-opacity:1;stroke:none;stroke-width:1px;stroke-linecap:butt;stroke-linejoin:miter;stroke-opacity:1"
       xml:space="preserve"><tspan
         style="font-style:normal;font-variant:normal;font-weight:normal;font-stretch:normal;font-size:250px;font-family:Dosis;-inkscape-font-specification:Dosis;stroke:none;stroke-opacity:1"
         y="147.50507"
         x="842.85718"
         id="tspan4170"
         sodipodi:role="line">pou<tspan
   id="tspan4172"
   style="letter-spacing:-5px;stroke:none;stroke-opacity:1">r</tspan><tspan
   id="tspan4174"
   style="letter-spacing:15px;stroke:none;stroke-opacity:1">_</tspan><tspan
   id="tspan4176"
   style="letter-spacing:1.43999887px;stroke:none;stroke-opacity:1">i</tspan>t</tspan></text>
  </g>
</svg>
